{
  "accessors": [
    {
      "bufferView": 2,
      "componentType": 5126,
      "count": 12838,
      "max": [
        1.0,
        161.60198974609375,
        1.0
      ],
      "min": [
        -1.0,
        -1.0,
        -1.0
      ],
      "type": "VEC3"
    },
    {
      "bufferView": 2,
      "byteOffset": 154056,
      "componentType": 5126,
      "count": 12838,
      "max": [
        1.0,
        1.0,
        1.0
      ],
      "min": [
        -1.0,
        -1.0,
        -1.0
      ],
      "type": "VEC3"
    },
    {
      "bufferView": 1,
      "componentType": 5126,
      "count": 12838,
      "max": [
        1.0,
        1.0
      ],
      "min": [
        0.0,
        0.0
      ],
      "type": "VEC2"
    },
    {
      "bufferView": 0,
      "componentType": 5125,
      "count": 19368,
      "type": "SCALAR"
    },
    {
      "bufferView": 2,
      "byteOffset": 308112,
      "componentType": 5126,
      "count": 960,
      "max": [
        0.9606931805610657,
        160.00958251953125,
        0.967697024345398
      ],
      "min": [
        -0.9423385858535767,
        0.29477596282958984,
        -0.9716783761978149
      ],
      "type": "VEC3"
    },
    {
      "bufferView": 2,
      "byteOffset": 319632,
      "componentType": 5126,
      "count": 960,
      "max": [
        1.0,
        1.79133312627755e-08,
        1.0
      ],
      "min": [
        -1.0,
        -4.478332815693875e-09,
        -1.0
      ],
      "type": "VEC3"
    },
    {
      "bufferView": 1,
      "byteOffset": 102704,
      "componentType": 5126,
      "count": 960,
      "max": [
        0.9674452543258667,
        1.0
      ],
      "min": [
        0.033994343131780624,
        0.0
      ],
      "type": "VEC2"
    },
    {
      "bufferView": 0,
      "byteOffset": 77472,
      "componentType": 5125,
      "count": 1440,
      "type": "SCALAR"
    }
  ],
  "asset": {
    "extras": {
      "author": "Shalmon (https://sketchfab.com/nashalanandas)",
      "license": "CC-BY-4.0 (http://creativecommons.org/licenses/by/4.0/)",
      "source": "https://sketchfab.com/3d-models/building-05-b8138441c5514e3484894eb68123bc41",
      "title": "Building 05"
    },
    "generator": "Sketchfab-11.22.0",
    "version": "2.0"
  },
  "bufferViews": [
    {
      "buffer": 0,
      "byteLength": 83232,
      "name": "floatBufferViews",
      "target": 34963
    },
    {
      "buffer": 0,
      "byteLength": 110384,
      "byteOffset": 83232,
      "byteStride": 8,
      "name": "floatBufferViews",
      "target": 34962
    },
    {
      "buffer": 0,
      "byteLength": 331152,
      "byteOffset": 193616,
      "byteStride": 12,
      "name": "floatBufferViews",
      "target": 34962
    }
  ],
  "buffers": [
    {
      "byteLength": 524768,
      "uri": "scene.bin"
    }
  ],
  "images": [
    {
      "uri": "textures/TexturesCom_BuildingsHighRise0628_2_seamless_S_baseColor.png"
    }
  ],
  "materials": [
    {
      "doubleSided": true,
      "name": "TexturesCom_BuildingsHighRise0628_2_seamless_S",
      "pbrMetallicRoughness": {
        "baseColorTexture": {
          "index": 0
        },
        "metallicFactor": 0.0,
        "roughnessFactor": 0.5
      }
    },
    {
      "doubleSided": true,
      "name": "TexturesCom_BuildingsHighRise0628_2_seamless_S.001",
      "pbrMetallicRoughness": {
        "baseColorTexture": {
          "index": 0
        },
        "metallicFactor": 0.0,
        "roughnessFactor": 0.0
      }
    }
  ],
  "meshes": [
    {
      "name": "Object_0",
      "primitives": [
        {
          "attributes": {
            "NORMAL": 1,
            "POSITION": 0,
            "TEXCOORD_0": 2
          },
          "indices": 3,
          "material": 0,
          "mode": 4
        }
      ]
    },
    {
      "name": "Object_1",
      "primitives": [
        {
          "attributes": {
            "NORMAL": 5,
            "POSITION": 4,
            "TEXCOORD_0": 6
          },
          "indices": 7,
          "material": 1,
          "mode": 4
        }
      ]
    }
  ],
  "nodes": [
    {
      "children": [
        1
      ],
      "matrix": [
        1.0,
        0.0,
        0.0,
        0.0,
        0.0,
        2.220446049250313e-16,
        -1.0,
        0.0,
        0.0,
        1.0,
        2.220446049250313e-16,
        0.0,
        0.0,
        0.0,
        0.0,
        1.0
      ],
      "name": "Sketchfab_model"
    },
    {
      "children": [
        2
      ],
      "name": "root"
    },
    {
      "children": [
        3
      ],
      "matrix": [
        1.0,
        0.0,
        0.0,
        0.0,
        0.0,
        2.220446049250313e-16,
        1.0,
        0.0,
        0.0,
        -1.0,
        2.220446049250313e-16,
        0.0,
        0.0,
        0.0,
        0.0,
        1.0
      ],
      "name": "GLTF_SceneRootNode"
    },
    {
      "children": [
        4,
        5
      ],
      "matrix": [
        1.102530598640442,
        0.0,
        0.0,
        0.0,
        0.0,
        0.03756696358323097,
        0.0,
        0.0,
        0.0,
        0.0,
        1.102530598640442,
        0.0,
        -1.0591932535171509,
        -0.5110740661621094,
        -0.5413299798965454,
        1.0
      ],
      "name": "Cube.001_0"
    },
    {
      "mesh": 0,
      "name": "Object_4"
    },
    {
      "mesh": 1,
      "name": "Object_5"
    }
  ],
  "samplers": [
    {
      "magFilter": 9729,
      "minFilter": 9987,
      "wrapS": 33071,
      "wrapT": 33071
    }
  ],
  "scene": 0,
  "scenes": [
    {
      "name": "Sketchfab_Scene",
      "nodes": [
        0
      ]
    }
  ],
  "textures": [
    {
      "sampler": 0,
      "source": 0
    }
  ]
}
